<?xml version="1.0" standalone="no"?>
<!DOCTYPE svg PUBLIC "-//W3C//DTD SVG 20010904//EN"
 "http://www.w3.org/TR/2001/REC-SVG-20010904/DTD/svg10.dtd">
<svg version="1.0" xmlns="http://www.w3.org/2000/svg"
 width="64.000000pt" height="64.000000pt" viewBox="0 0 64.000000 64.000000"
 preserveAspectRatio="xMidYMid meet">

<g transform="translate(0.000000,64.000000) scale(0.100000,-0.100000)"
fill="#000000" stroke="none">
<path d="M218 574 c-27 -19 -48 -37 -48 -41 0 -3 7 -14 16 -24 15 -16 18 -16
60 12 56 38 61 47 38 70 -19 18 -20 17 -66 -17z m52 -4 c0 -13 -62 -51 -70
-44 -5 6 50 54 63 54 4 0 7 -5 7 -10z"/>
<path d="M430 525 c-7 -8 -8 -15 -2 -15 5 0 15 7 22 15 7 8 8 15 2 15 -5 0
-15 -7 -22 -15z"/>
<path d="M100 471 c0 -13 29 -35 37 -28 7 8 -15 37 -28 37 -5 0 -9 -4 -9 -9z"/>
<path d="M485 450 c-18 -20 -18 -21 3 -43 l22 -21 22 21 c21 22 21 23 3 43
-10 11 -21 20 -25 20 -4 0 -15 -9 -25 -20z m35 -20 c0 -5 -4 -10 -10 -10 -5 0
-10 5 -10 10 0 6 5 10 10 10 6 0 10 -4 10 -10z"/>
<path d="M335 420 c-18 -20 -18 -21 3 -43 l22 -21 22 21 c21 22 21 23 3 43
-10 11 -21 20 -25 20 -4 0 -15 -9 -25 -20z m35 -20 c0 -5 -4 -10 -10 -10 -5 0
-10 5 -10 10 0 6 5 10 10 10 6 0 10 -4 10 -10z"/>
<path d="M240 415 c-7 -8 -8 -15 -2 -15 5 0 15 7 22 15 7 8 8 15 2 15 -5 0
-15 -7 -22 -15z"/>
<path d="M84 349 c-17 -19 -17 -20 17 -49 56 -49 64 -52 85 -29 18 20 18 21
-16 50 -57 48 -65 51 -86 28z m61 -34 c16 -13 26 -27 23 -31 -7 -7 -67 36 -67
49 -1 13 13 7 44 -18z"/>
<path d="M474 329 c-17 -19 -17 -20 17 -49 56 -49 64 -52 85 -29 18 20 18 21
-16 50 -57 48 -65 51 -86 28z m61 -34 c16 -13 26 -27 23 -31 -7 -7 -67 36 -67
49 -1 13 13 7 44 -18z"/>
<path d="M270 275 c-7 -8 -8 -15 -2 -15 5 0 15 7 22 15 7 8 8 15 2 15 -5 0
-15 -7 -22 -15z"/>
<path d="M390 241 c0 -13 29 -35 37 -28 7 8 -15 37 -28 37 -5 0 -9 -4 -9 -9z"/>
<path d="M255 190 c-18 -20 -18 -21 3 -43 l22 -21 22 21 c21 22 21 23 3 43
-10 11 -21 20 -25 20 -4 0 -15 -9 -25 -20z m35 -20 c0 -5 -4 -10 -10 -10 -5 0
-10 5 -10 10 0 6 5 10 10 10 6 0 10 -4 10 -10z"/>
<path d="M468 134 c-27 -19 -48 -37 -48 -41 0 -3 7 -14 16 -24 15 -16 18 -16
60 12 56 38 61 47 38 70 -19 18 -20 17 -66 -17z m52 -4 c0 -13 -62 -51 -70
-44 -5 6 50 54 63 54 4 0 7 -5 7 -10z"/>
<path d="M120 141 c0 -13 29 -35 37 -28 7 8 -15 37 -28 37 -5 0 -9 -4 -9 -9z"/>
</g>
</svg>
